<svg width="24" height="25" viewBox="0 0 24 25" fill="none" xmlns="http://www.w3.org/2000/svg">
<path d="M6 8.25C6 6.6587 6.63214 5.13258 7.75736 4.00736C8.88258 2.88214 10.4087 2.25 12 2.25C13.5913 2.25 15.1174 2.88214 16.2426 4.00736C17.3679 5.13258 18 6.6587 18 8.25C18 15.25 21 17.25 21 17.25H3C3 17.25 6 15.25 6 8.25Z" stroke="#666C89" stroke-width="2" stroke-linecap="round" stroke-linejoin="round"/>
<path d="M10.3 21.25C10.4674 21.5544 10.7135 21.8083 11.0125 21.9852C11.3116 22.162 11.6526 22.2553 12 22.2553C12.3475 22.2553 12.6885 22.162 12.9876 21.9852C13.2866 21.8083 13.5327 21.5544 13.7 21.25" stroke="#666C89" stroke-width="2" stroke-linecap="round" stroke-linejoin="round"/>
<path d="M4 2.25C2.8 3.95 2 5.95 2 8.25" stroke="#666C89" stroke-width="2" stroke-linecap="round" stroke-linejoin="round"/>
<path d="M22 8.25C22 5.95 21.2 3.95 20 2.25" stroke="#666C89" stroke-width="2" stroke-linecap="round" stroke-linejoin="round"/>
</svg>
