<svg width="20" height="20" viewBox="0 0 20 20" fill="none" xmlns="http://www.w3.org/2000/svg">
<g clip-path="url(#clip0_1231_476)">
<path d="M19.8919 3.8879C19.6879 3.02634 19.1978 2.17411 18.5118 1.48825C17.8208 0.797234 16.9968 0.321414 16.1287 0.112156C15.2532 -0.098938 14.4004 -0.00960207 13.7276 0.363562C13.5491 0.462585 13.2505 0.628171 12.0752 3.3277C11.6007 4.41755 11.1709 5.49192 11.0544 5.7854L8.38651 8.62001C8.20916 8.45309 7.92999 8.45634 7.75651 8.62969C7.57979 8.80641 7.57979 9.09294 7.75651 9.2697L7.76612 9.27923L0.475297 17.0257C-0.172789 17.7144 -0.155992 18.8188 0.512719 19.4874C0.853969 19.8287 1.30854 20.0001 1.76354 20.0001C2.20014 20.0001 2.63717 19.8422 2.9744 19.5248L10.721 12.234L10.7305 12.2435C10.9072 12.4202 11.1937 12.4202 11.3705 12.2435C11.5439 12.0701 11.5471 11.7909 11.3802 11.6136L14.2473 8.91512C14.5455 8.79868 15.6025 8.38266 16.6756 7.92235C19.3502 6.77505 19.5197 6.47778 19.621 6.3002C20.0047 5.62719 20.101 4.77048 19.8919 3.8879ZM2.35416 18.8657C2.0237 19.1768 1.4735 19.1684 1.1526 18.8475C0.831742 18.5266 0.823383 17.9764 1.13432 17.6459L8.40631 9.91934L10.0807 11.5937L2.35416 18.8657ZM10.7401 10.9732L9.0269 9.26005L11.4846 6.64876L11.9917 7.15591C11.9949 7.15911 11.9981 7.16239 12.0014 7.16552L12.8358 7.99989C12.8383 8.00247 12.8407 8.00497 12.8433 8.00739L13.3514 8.51555L10.7401 10.9732ZM18.8465 5.83098C18.5256 6.15348 16.2073 7.17598 14.1123 7.99653L13.847 7.73122L16.5238 5.71309C16.7234 5.56262 16.7632 5.27887 16.6127 5.0793C16.4623 4.87989 16.1786 4.84001 15.979 4.9904L13.2008 7.08497L12.9151 6.79927L15.0096 4.0211C15.1601 3.82153 15.1202 3.53778 14.9207 3.38731C14.7211 3.23688 14.4374 3.27673 14.2869 3.47622L12.2688 6.15302L11.9919 5.87606C12.8309 3.77341 13.865 1.4645 14.189 1.14262C15.2076 0.596179 16.7514 1.0077 17.8719 2.12809C19.003 3.25923 19.4101 4.81177 18.8465 5.83098Z" fill="#070707"/>
</g>
<defs>
<clipPath id="clip0_1231_476">
<rect width="20" height="20" fill="white"/>
</clipPath>
</defs>
</svg>
