<svg width="21" height="20" viewBox="0 0 21 20" fill="none" xmlns="http://www.w3.org/2000/svg">
<path d="M10.3272 16.4334C6.9145 16.4334 4.13837 13.7895 4.13837 10.539C4.13837 7.28853 6.9145 4.64459 10.3272 4.64459C13.7412 4.64459 16.5184 7.28853 16.5184 10.539C16.5184 13.7895 13.7412 16.4334 10.3272 16.4334ZM10.3272 5.30066C7.29422 5.30066 4.82689 7.65049 4.82689 10.5393C4.82689 13.4282 7.29422 15.778 10.3272 15.778C13.3612 15.778 15.8299 13.4282 15.8299 10.5393C15.8299 7.65049 13.3615 5.30066 10.3272 5.30066Z" fill="#070707"/>
<path d="M10.3276 14.4957C8.03683 14.4957 6.17334 12.7207 6.17334 10.5393C6.17334 8.35803 8.03718 6.58295 10.3276 6.58295C12.6183 6.58295 14.4818 8.3577 14.4818 10.5393C14.4818 12.721 12.6183 14.4957 10.3276 14.4957ZM10.3276 7.23868C8.41655 7.23868 6.86186 8.71934 6.86186 10.5393C6.86186 12.3593 8.41655 13.84 10.3276 13.84C12.2386 13.84 13.7932 12.3593 13.7932 10.5393C13.7932 8.71934 12.2386 7.23868 10.3276 7.23868Z" fill="#070707"/>
<path d="M10.3275 12.877C8.97459 12.877 7.87433 11.8282 7.87433 10.539C7.87433 10.358 8.02856 10.2111 8.21859 10.2111C8.40862 10.2111 8.56285 10.358 8.56285 10.539C8.56285 11.4665 9.35466 12.2213 10.3275 12.2213C11.3015 12.2213 12.094 11.4665 12.094 10.539C12.094 10.358 12.2478 10.2111 12.4382 10.2111C12.6286 10.2111 12.7825 10.358 12.7825 10.539C12.7825 11.8285 11.6812 12.877 10.3275 12.877Z" fill="#070707"/>
<path d="M3.78689 2.62299C3.59685 2.62299 3.44262 2.76987 3.44262 2.95085V6.22954H2.40984V2.95085C2.40984 2.76987 2.25561 2.62299 2.06557 2.62299C1.87554 2.62299 1.72131 2.76987 1.72131 2.95085V6.22954H0.688525V2.95085C0.688525 2.76987 0.534295 2.62299 0.344262 2.62299C0.15423 2.62299 0 2.76987 0 2.95085V8.52463C0 8.95151 0.288836 9.31217 0.688525 9.4479V16.7213C0.688525 17.2636 1.1519 17.705 1.72131 17.705H2.40984C2.97925 17.705 3.44262 17.2636 3.44262 16.7213V9.4479C3.84231 9.31217 4.13115 8.95151 4.13115 8.52463V2.95085C4.13115 2.76987 3.97692 2.62299 3.78689 2.62299ZM2.7541 11.8033H1.37705V11.1476H2.7541V11.8033ZM1.37705 12.4591H2.7541V15.7377H1.37705V12.4591ZM2.7541 10.4918H1.37705V9.50823H2.7541V10.4918ZM2.7541 16.7213C2.7541 16.902 2.59952 17.0492 2.40984 17.0492H1.72131C1.53162 17.0492 1.37705 16.902 1.37705 16.7213V16.3935H2.7541V16.7213ZM3.44262 8.52463C3.44262 8.70528 3.28805 8.85249 3.09836 8.85249H1.03279C0.843098 8.85249 0.688525 8.70528 0.688525 8.52463V6.88528H1.72131V7.21315C1.72131 7.39413 1.87554 7.54102 2.06557 7.54102C2.25561 7.54102 2.40984 7.39413 2.40984 7.21315V6.88528H3.44262V8.52463Z" fill="#070707"/>
<path d="M18.5901 2.2951C17.2389 2.2951 16.1803 3.87937 16.1803 5.90166C16.1803 7.1515 16.5852 8.23248 17.2131 8.8774V16.7213C17.2131 17.2636 17.6765 17.7049 18.2459 17.7049H18.9344C19.5038 17.7049 19.9672 17.2636 19.9672 16.7213V8.8774C20.5951 8.23281 21 7.15183 21 5.90166C21 3.87937 19.9414 2.2951 18.5901 2.2951ZM19.2787 16.7213C19.2787 16.902 19.1244 17.0492 18.9344 17.0492H18.2459C18.0558 17.0492 17.9016 16.902 17.9016 16.7213V16.3935H19.2787V16.7213ZM19.2787 15.7377H17.9016V12.459H19.2787V15.7377ZM19.2787 11.8033H17.9016V11.1476H19.2787V11.8033ZM19.2787 10.4918H17.9016V9.36199C18.1192 9.45609 18.3498 9.50822 18.5901 9.50822C18.8304 9.50822 19.0611 9.45609 19.2787 9.36199V10.4918ZM19.362 8.52461H17.8186C17.2609 8.02986 16.8688 7.02855 16.8688 5.90166C16.8688 4.30232 17.6572 2.95084 18.5901 2.95084C19.5231 2.95084 20.3114 4.30232 20.3114 5.90166C20.3114 7.02855 19.9193 8.02986 19.362 8.52461Z" fill="#070707"/>
</svg>
