<svg width="20" height="20" viewBox="0 0 20 20" fill="none" xmlns="http://www.w3.org/2000/svg">
<path d="M9.6494 3.57646L10.0029 3.92419L10.3536 3.57355L10.9585 2.96859C11.9035 2.07742 13.1583 1.58889 14.4572 1.60661C15.7584 1.62435 17.0015 2.14873 17.9223 3.06833C18.8431 3.98794 19.369 5.23031 19.3885 6.53152C19.4078 7.8304 18.921 9.08574 18.0311 10.0318L9.99981 18.0727L1.96885 10.0417C1.07903 9.09564 0.592194 7.84035 0.611581 6.54152C0.631003 5.24031 1.15698 3.99794 2.07776 3.07833C2.99855 2.15873 4.2416 1.63435 5.54283 1.61661C6.84246 1.59888 8.09786 2.08793 9.04299 2.97998L9.6494 3.57646Z" stroke="black"/>
<path d="M10.9623 8.18154V8.43154H11.2123H13.387V10.3563H11.2123H10.9623V10.6063V12.781H9.99992H9.03747V10.6063V10.3563H8.78747H6.61279V8.43154H8.78747H9.03747V8.18154V6.00671H9.99992H10.9623V8.18154Z" stroke="black" stroke-width="0.5"/>
</svg>
