<svg width="24" height="25" viewBox="0 0 24 25" fill="none" xmlns="http://www.w3.org/2000/svg">
<path d="M2 21.75C1.99992 20.2103 2.44413 18.7033 3.27935 17.4098C4.11456 16.1164 5.30527 15.0914 6.7086 14.458C8.11193 13.8245 9.66824 13.6095 11.1908 13.8386C12.7133 14.0678 14.1373 14.7315 15.292 15.75" stroke="#666C89" stroke-width="2" stroke-linecap="round" stroke-linejoin="round"/>
<path d="M10 13.75C12.7614 13.75 15 11.5114 15 8.75C15 5.98858 12.7614 3.75 10 3.75C7.23858 3.75 5 5.98858 5 8.75C5 11.5114 7.23858 13.75 10 13.75Z" stroke="#666C89" stroke-width="2" stroke-linecap="round" stroke-linejoin="round"/>
<path d="M16 19.75L18 21.75L22 17.75" stroke="#666C89" stroke-width="2" stroke-linecap="round" stroke-linejoin="round"/>
</svg>
