<svg width="66" height="66" viewBox="0 0 66 66" fill="none" xmlns="http://www.w3.org/2000/svg">
<g clip-path="url(#clip0_1086_1479)">
<path d="M63.4519 20.0506C65.6623 16.1744 64.35 10.2834 60.0333 5.96668C55.7448 1.6781 49.9025 0.354879 46.0254 2.50529C44.215 3.50934 37.7668 19.8958 37.7668 19.8958L39.8759 26.1241L46.2039 28.1335C46.2039 28.1335 62.4193 21.8617 63.4519 20.0506Z" fill="#FF738E"/>
<path d="M46.2038 28.1334L37.8666 19.796L27.7085 30.5892L35.4108 38.2915L46.2038 28.1334Z" fill="#3D7A94"/>
<path d="M27.7085 30.5892L2.65587 57.208C1.06865 58.8947 1.11003 61.6146 2.74778 63.2524C4.38541 64.89 7.10546 64.9314 8.7922 63.3441L35.4108 38.2916L27.7085 30.5892Z" fill="#0E4675"/>
<path d="M65.6433 12.8296C64.97 9.98648 63.3526 7.17413 61.089 4.91079C58.8088 2.63044 56.0894 1.06024 53.2248 0.369685C50.3355 -0.326924 47.5214 -0.0321156 45.301 1.19933C44.7121 1.5261 43.7268 2.07254 39.8481 10.981C38.2823 14.5775 36.8639 18.1229 36.4794 19.0914L27.6755 28.4456C27.0902 27.8948 26.1689 27.9055 25.5965 28.4776C25.0133 29.0607 25.0133 30.0063 25.5965 30.5896L25.6282 30.621L1.56848 56.1844C-0.570203 58.4572 -0.514773 62.1015 1.69197 64.3081C2.8181 65.4342 4.31818 65.9999 5.81968 65.9999C7.26046 65.9999 8.70267 65.4787 9.81551 64.4314L35.3793 40.3717L35.4106 40.4032C35.9938 40.9861 36.9393 40.9861 37.5226 40.4032C38.0948 39.8309 38.1054 38.9096 37.5546 38.3245L47.0161 29.4195C48.0001 29.0352 51.4882 27.6624 55.0294 26.1433C63.8556 22.3572 64.415 21.3762 64.7492 20.7902C66.0155 18.5693 66.3332 15.7421 65.6433 12.8296ZM7.76874 62.2564C6.67819 63.2829 4.86255 63.2552 3.80359 62.1962C2.74475 61.1375 2.71716 59.3216 3.74326 58.2312L27.7408 32.7334L33.2663 38.2588L7.76874 62.2564ZM35.4422 36.2112L29.7888 30.5577L37.8992 21.9405L39.5728 23.6141C39.5831 23.6246 39.5936 23.6355 39.6045 23.6458L42.358 26.3992C42.3663 26.4077 42.3744 26.416 42.3828 26.424L44.0597 28.1009L35.4422 36.2112ZM62.1935 19.2418C61.1346 20.3061 53.4841 23.6803 46.5706 26.3881L45.695 25.5126L54.5286 18.8528C55.1872 18.3562 55.3185 17.4199 54.822 16.7613C54.3256 16.1032 53.3893 15.9716 52.7306 16.4679L43.5625 23.38L42.6197 22.4371L49.5317 13.2692C50.0282 12.6106 49.8967 11.6742 49.2383 11.1777C48.5797 10.6813 47.6433 10.8128 47.1469 11.4711L40.4871 20.3045L39.5731 19.3906C42.342 12.4518 45.7546 4.83242 46.8237 3.77023C50.1852 1.96696 55.2797 3.32499 58.9773 7.02228C62.71 10.755 64.0533 15.8784 62.1935 19.2418Z" fill="#000030"/>
</g>
<defs>
<clipPath id="clip0_1086_1479">
<rect width="66" height="66" fill="white"/>
</clipPath>
</defs>
</svg>
