<svg width="84" height="84" viewBox="0 0 84 84" fill="none" xmlns="http://www.w3.org/2000/svg">
<path d="M41.3115 67.6365C54.226 67.6365 64.6952 57.1698 64.6952 44.2584C64.6952 31.347 54.226 20.8802 41.3115 20.8802C28.3971 20.8802 17.9279 31.347 17.9279 44.2584C17.9279 57.1698 28.3971 67.6365 41.3115 67.6365Z" fill="#ECECEC"/>
<path d="M20.708 48.1651C20.708 35.2538 31.175 24.7869 44.0876 24.7869C51.1036 24.7869 57.383 27.8921 61.6711 32.7862C57.6556 25.6861 50.046 20.8857 41.31 20.8857C28.3988 20.8857 17.9319 31.3527 17.9319 44.2639C17.9319 50.1631 20.1338 55.5364 23.7375 59.6496C21.8165 56.2552 20.708 52.343 20.708 48.1651Z" fill="#B0B0B0"/>
<path d="M41.3087 69.0205C27.658 69.0205 16.5535 57.9159 16.5535 44.2639C16.5535 30.6118 27.658 19.5073 41.3087 19.5073C54.9649 19.5073 66.0735 30.6118 66.0735 44.2639C66.0735 57.9159 54.9649 69.0205 41.3087 69.0205ZM41.3087 22.2628C29.1769 22.2628 19.3076 32.1321 19.3076 44.2652C19.3076 56.3984 29.1769 66.2677 41.3087 66.2677C53.4446 66.2677 63.3194 56.3984 63.3194 44.2652C63.3194 32.1321 53.446 22.2628 41.3087 22.2628Z" fill="#132C47"/>
<path d="M41.3101 59.5161C49.7291 59.5161 56.554 52.6911 56.554 44.2721C56.554 35.8531 49.7291 29.0282 41.3101 29.0282C32.8911 29.0282 26.0662 35.8531 26.0662 44.2721C26.0662 52.6911 32.8911 59.5161 41.3101 59.5161Z" fill="#ECECEC"/>
<path d="M28.9181 48.1045C28.9181 39.6879 35.7413 32.8646 44.1579 32.8646C48.3097 32.8646 52.0676 34.5295 54.8162 37.2216C52.2714 32.3538 47.1832 29.0254 41.3101 29.0254C32.8936 29.0254 26.0703 35.8487 26.0703 44.2652C26.0703 48.5313 27.8274 52.3829 30.6518 55.1481C29.5501 53.0398 28.9181 50.6479 28.9181 48.1045Z" fill="#B0B0B0"/>
<path d="M41.3101 60.8821C32.1472 60.8821 24.6932 53.4268 24.6932 44.2652C24.6932 35.1037 32.1486 27.6484 41.3101 27.6484C50.473 27.6484 57.9269 35.1024 57.9269 44.2652C57.9269 53.4281 50.473 60.8821 41.3101 60.8821ZM41.3101 30.4025C33.6661 30.4025 27.4473 36.6212 27.4473 44.2652C27.4473 51.9092 33.6661 58.128 41.3101 58.128C48.9541 58.128 55.1728 51.9092 55.1728 44.2652C55.1728 36.6212 48.9541 30.4025 41.3101 30.4025Z" fill="#132C47"/>
<path d="M41.31 54.0836C35.8982 54.0836 31.4972 49.6784 31.4972 44.2639C31.4972 43.5037 32.1141 42.8868 32.8742 42.8868C33.6344 42.8868 34.2513 43.5037 34.2513 44.2639C34.2513 48.1595 37.4185 51.3295 41.31 51.3295C45.2057 51.3295 48.3757 48.1595 48.3757 44.2639C48.3757 43.5037 48.9912 42.8868 49.7527 42.8868C50.5142 42.8868 51.1298 43.5037 51.1298 44.2639C51.1298 49.6798 46.7246 54.0836 41.31 54.0836Z" fill="#132C47"/>
<path d="M12.3934 38.5574H4.1311V67.4754H12.3934V38.5574Z" fill="#ECECEC"/>
<path d="M6.8852 38.5574H4.1311V67.4754H6.8852V38.5574Z" fill="#B0B0B0"/>
<path d="M12.3934 45.4426H4.1311V50.9508H12.3934V45.4426Z" fill="#F85766"/>
<path d="M6.8852 45.4426H4.1311V50.9508H6.8852V45.4426Z" fill="#BA414D"/>
<path d="M12.3934 67.4754V70.2295C12.3934 71.7443 11.1541 72.9836 9.6393 72.9836H6.8852C5.37045 72.9836 4.1311 71.7443 4.1311 70.2295V67.4754H12.3934Z" fill="#F85766"/>
<path d="M6.8852 70.2295V67.4754H4.1311V70.2295C4.1311 71.7443 5.37045 72.9836 6.8852 72.9836H9.6393C8.12455 72.9836 6.8852 71.7443 6.8852 70.2295Z" fill="#F97985"/>
<path d="M15.1476 27.541V35.8033C15.1476 37.318 13.9082 38.5574 12.3935 38.5574H4.13117C2.61642 38.5574 1.37708 37.318 1.37708 35.8033V27.541H15.1476Z" fill="#ECECEC"/>
<path d="M4.13117 35.8033V27.541H1.37708V35.8033C1.37708 37.318 2.61642 38.5574 4.13117 38.5574H6.88527C5.37052 38.5574 4.13117 37.318 4.13117 35.8033Z" fill="#B0B0B0"/>
<path d="M78.4918 37.1803H70.2295V67.4754H78.4918V37.1803Z" fill="#ECECEC"/>
<path d="M72.9836 37.1803H70.2295V67.4754H72.9836V37.1803Z" fill="#B0B0B0"/>
<path d="M78.4918 45.4426H70.2295V50.9508H78.4918V45.4426Z" fill="#F85766"/>
<path d="M72.9836 45.4426H70.2295V50.9508H72.9836V45.4426Z" fill="#BA414D"/>
<path d="M78.4918 67.4754V70.2295C78.4918 71.7443 77.2524 72.9836 75.7377 72.9836H72.9836C71.4688 72.9836 70.2295 71.7443 70.2295 70.2295V67.4754H78.4918Z" fill="#F85766"/>
<path d="M72.9836 70.2295V67.4754H70.2295V70.2295C70.2295 71.7443 71.4688 72.9836 72.9836 72.9836H75.7377C74.2229 72.9836 72.9836 71.7443 72.9836 70.2295Z" fill="#F97985"/>
<path d="M74.3607 38.5574C78.9238 38.5574 82.623 32.3921 82.623 24.7869C82.623 17.1817 78.9238 11.0164 74.3607 11.0164C69.7975 11.0164 66.0984 17.1817 66.0984 24.7869C66.0984 32.3921 69.7975 38.5574 74.3607 38.5574Z" fill="#ECECEC"/>
<path d="M68.8525 24.7869C68.8525 17.9691 71.8352 12.3191 75.7377 11.223C75.2888 11.0976 74.8303 11.0164 74.3607 11.0164C69.8027 11.0164 66.0984 17.1856 66.0984 24.7869C66.0984 32.3882 69.8027 38.5574 74.3607 38.5574C74.8303 38.5574 75.2888 38.4761 75.7377 38.3508C71.8352 37.2547 68.8525 31.6047 68.8525 24.7869Z" fill="#B0B0B0"/>
<path d="M15.1475 11.0164C14.3874 11.0164 13.7705 11.6333 13.7705 12.3934V26.1639H9.63934V12.3934C9.63934 11.6333 9.02243 11.0164 8.26229 11.0164C7.50216 11.0164 6.88525 11.6333 6.88525 12.3934V26.1639H2.7541V12.3934C2.7541 11.6333 2.13718 11.0164 1.37705 11.0164C0.616918 11.0164 0 11.6333 0 12.3934V35.8033C0 37.5962 1.15534 39.111 2.7541 39.6811V70.2295C2.7541 72.5072 4.60761 74.3607 6.88525 74.3607H9.63934C11.917 74.3607 13.7705 72.5072 13.7705 70.2295V39.6811C15.3692 39.111 16.5246 37.5962 16.5246 35.8033V12.3934C16.5246 11.6333 15.9077 11.0164 15.1475 11.0164ZM11.0164 49.5738H5.5082V46.8197H11.0164V49.5738ZM5.5082 52.3279H11.0164V66.0984H5.5082V52.3279ZM11.0164 44.0656H5.5082V39.9344H11.0164V44.0656ZM11.0164 70.2295C11.0164 70.9883 10.3981 71.6066 9.63934 71.6066H6.88525C6.12649 71.6066 5.5082 70.9883 5.5082 70.2295V68.8525H11.0164V70.2295ZM13.7705 35.8033C13.7705 36.562 13.1522 37.1803 12.3934 37.1803H4.13115C3.37239 37.1803 2.7541 36.562 2.7541 35.8033V28.918H6.88525V30.2951C6.88525 31.0552 7.50216 31.6721 8.26229 31.6721C9.02243 31.6721 9.63934 31.0552 9.63934 30.2951V28.918H13.7705V35.8033Z" fill="#132C47"/>
<path d="M74.3607 9.63934C68.9557 9.63934 64.7213 16.2932 64.7213 24.7869C64.7213 30.0362 66.3407 34.5763 68.8525 37.285V70.2295C68.8525 72.5071 70.706 74.3607 72.9836 74.3607H75.7377C78.0153 74.3607 79.8689 72.5071 79.8689 70.2295V37.285C82.3806 34.5777 84 30.0376 84 24.7869C84 16.2932 79.7656 9.63934 74.3607 9.63934ZM77.1148 70.2295C77.1148 70.9883 76.4978 71.6066 75.7377 71.6066H72.9836C72.2235 71.6066 71.6066 70.9883 71.6066 70.2295V68.8525H77.1148V70.2295ZM77.1148 66.0984H71.6066V52.3279H77.1148V66.0984ZM77.1148 49.5738H71.6066V46.8197H77.1148V49.5738ZM77.1148 44.0656H71.6066V39.3203C72.4769 39.7155 73.3995 39.9344 74.3607 39.9344C75.3218 39.9344 76.2445 39.7155 77.1148 39.3203V44.0656ZM77.448 35.8033H71.2747C69.0439 33.7253 67.4754 29.5198 67.4754 24.7869C67.4754 18.0696 70.6289 12.3934 74.3607 12.3934C78.0925 12.3934 81.2459 18.0696 81.2459 24.7869C81.2459 29.5198 79.6774 33.7253 77.448 35.8033Z" fill="#132C47"/>
</svg>
