<svg width="66" height="66" viewBox="0 0 66 66" fill="none" xmlns="http://www.w3.org/2000/svg">
<path d="M34.715 47.1787L34.6379 47.4869L34.8842 47.6876L38.5967 50.7126L38.6153 50.7277L38.6352 50.741C38.8413 50.8784 38.8782 51.1251 38.7715 51.2851L38.7636 51.2971L38.7563 51.3094L35.0438 57.6344L35.0173 57.6796L35.0007 57.7294C34.9948 57.7472 34.971 57.792 34.8701 57.8257C34.773 57.858 34.6531 57.8601 34.5531 57.8318L30.3183 55.9193L30.049 55.7977L29.8126 55.975C28.7117 56.8006 27.8068 57.4415 26.6544 57.8257L26.3433 57.9294L26.3145 58.2561L25.902 62.931L25.9001 62.953V62.975C25.9001 63.0186 25.8732 63.1041 25.7887 63.1886C25.7042 63.2731 25.6187 63.3 25.5751 63.3H18.2876C18.2439 63.3 18.1584 63.2731 18.0739 63.1886C17.9894 63.1041 17.9626 63.0186 17.9626 62.975V62.953L17.9606 62.931L17.5481 58.2561L17.5222 57.9627L17.2531 57.8431C16.023 57.2964 14.9796 56.7704 14.0754 55.9954L13.834 55.7884L13.5443 55.9193L9.30873 57.8321C9.13427 57.8831 8.96163 57.8404 8.81073 57.6207L5.10626 51.3094L5.09902 51.2971L5.09108 51.2852C4.9844 51.1251 5.02127 50.8784 5.2274 50.741L5.23411 50.7365L5.24067 50.7319L9.09067 47.9819L9.35375 47.794L9.29034 47.4769C9.16374 46.8439 9.16255 46.3398 9.16255 45.65C9.16255 44.9431 9.16569 44.324 9.28512 43.8463L9.36769 43.516L9.09067 43.3181L5.24067 40.5681L5.23411 40.5634L5.2274 40.559C5.02127 40.4215 4.9844 40.1749 5.09108 40.0149L5.09902 40.0029L5.10626 39.9906L8.81876 33.6656L8.84531 33.6204L8.8619 33.5706C8.86785 33.5528 8.89163 33.508 8.99254 33.4743C9.0896 33.442 9.20952 33.4399 9.30947 33.4682L13.5443 35.3807L13.8136 35.5023L14.0501 35.325C15.1509 34.4994 16.0558 33.8585 17.2082 33.4743L17.5106 33.3735L17.5468 33.0568L18.0968 28.2443L18.1001 28.216V28.1875C18.1001 28.1439 18.1269 28.0584 18.2114 27.9739C18.2959 27.8894 18.3814 27.8625 18.4251 27.8625H25.7126C25.7562 27.8625 25.8417 27.8894 25.9262 27.9739C26.0107 28.0584 26.0376 28.1439 26.0376 28.1875V28.2095L26.0395 28.2315L26.452 32.9064L26.4779 33.1998L26.747 33.3194C27.9771 33.8661 29.0205 34.3921 29.9247 35.1671L30.1732 35.3802L30.4678 35.2376L34.6968 33.1913C34.8694 33.1428 35.04 33.1869 35.1894 33.4043L38.8938 39.7156L38.9011 39.7279L38.909 39.7399C39.0157 39.8999 38.9788 40.1466 38.7727 40.284L38.766 40.2884L38.7594 40.2931L34.9094 43.0431L34.6464 43.231L34.7098 43.5481C34.8364 44.1811 34.8376 44.6852 34.8376 45.375C34.8376 46.0819 34.8344 46.701 34.715 47.1787ZM14.6251 45.375C14.6251 49.5011 17.8739 52.75 22.0001 52.75C26.1262 52.75 29.3751 49.5011 29.3751 45.375C29.3751 41.2489 26.1262 38 22.0001 38C17.8739 38 14.6251 41.2489 14.6251 45.375Z" fill="#EC008B" stroke="black"/>
<path d="M57.1222 20.9394L57.0553 21.2737L57.3421 21.4581L61.1882 23.9306C61.3212 24.02 61.364 24.1005 61.3754 24.1425C61.3836 24.1727 61.3906 24.2314 61.3215 24.3352L61.3129 24.3479L61.3052 24.3612L57.905 30.2097C57.7546 30.3371 57.5626 30.3858 57.3781 30.3319L53.417 28.5562L53.1278 28.4266L52.8871 28.6329C51.9707 29.4183 51.0594 29.939 50.0119 30.3318L49.7199 30.4414L49.6898 30.7518L49.2773 35.0143L49.275 35.0384V35.0625C49.275 35.0866 49.2669 35.1222 49.2102 35.1663C49.1481 35.2146 49.0513 35.25 48.95 35.25H42.2125C42.1112 35.25 42.0144 35.2146 41.9523 35.1663C41.8956 35.1222 41.8875 35.0866 41.8875 35.0625V35.0384L41.8852 35.0143L41.4727 30.7518L41.446 30.4765L41.1986 30.3528C40.1144 29.8107 39.1759 29.2737 38.2406 28.6056L38.0072 28.4389L37.7455 28.5562L33.758 30.3437L33.7199 30.3608L33.6851 30.384C33.5814 30.4531 33.5227 30.4462 33.4925 30.4379C33.4514 30.4267 33.3734 30.3855 33.2862 30.259L29.8849 24.4087C29.8422 24.2662 29.8362 24.1662 29.8482 24.1004C29.8574 24.0495 29.8799 23.9935 29.9773 23.9285L29.9848 23.9235L29.9921 23.9183L33.4296 21.4433L33.6909 21.2551L33.6278 20.9394C33.5009 20.3052 33.5 19.7992 33.5 19.25V19.2468V19.2436V19.2403V19.2371V19.2339V19.2307V19.2274V19.2242V19.221V19.2178V19.2146V19.2113V19.2081V19.2049V19.2017V19.1984V19.1952V19.192V19.1888V19.1855V19.1823V19.1791V19.1759V19.1726V19.1694V19.1662V19.163V19.1597V19.1565V19.1533V19.1501V19.1468V19.1436V19.1404V19.1372V19.1339V19.1307V19.1275V19.1243V19.121V19.1178V19.1146V19.1113V19.1081V19.1049V19.1017V19.0984V19.0952V19.092V19.0887V19.0855V19.0823V19.079V19.0758V19.0726V19.0694V19.0661V19.0629V19.0597V19.0564V19.0532V19.05V19.0467V19.0435V19.0402V19.037V19.0338V19.0305V19.0273V19.0241V19.0208V19.0176V19.0143V19.0111V19.0079V19.0046V19.0014V18.9981V18.9949V18.9917V18.9884V18.9852V18.9819V18.9787V18.9754V18.9722V18.969V18.9657V18.9625V18.9592V18.956V18.9527V18.9495V18.9462V18.943V18.9397V18.9365V18.9332V18.93V18.9267V18.9235V18.9202V18.9169V18.9137V18.9104V18.9072V18.9039V18.9007V18.8974V18.8941V18.8909V18.8876V18.8844V18.8811V18.8778V18.8746V18.8713V18.868V18.8648V18.8615V18.8582V18.855V18.8517V18.8484V18.8452V18.8419V18.8386V18.8354V18.8321V18.8288V18.8255V18.8223V18.819V18.8157V18.8124V18.8091V18.8059V18.8026V18.7993V18.796V18.7927V18.7894V18.7862V18.7829V18.7796V18.7763V18.773V18.7697V18.7664V18.7631V18.7599V18.7566V18.7533V18.75V18.7467V18.7434V18.7401V18.7368V18.7335V18.7302V18.7269V18.7236V18.7203V18.717V18.7137V18.7104V18.707V18.7037V18.7004V18.6971V18.6938V18.6905V18.6872V18.6839V18.6805V18.6772V18.6739V18.6706V18.6673V18.6639V18.6606V18.6573V18.654V18.6506V18.6473V18.644V18.6407V18.6373V18.634V18.6307V18.6273V18.624V18.6207V18.6173V18.614V18.6106V18.6073V18.604V18.6006V18.5973V18.5939V18.5906V18.5872V18.5839V18.5805V18.5772V18.5738V18.5705V18.5671V18.5638V18.5604V18.557V18.5537V18.5503V18.5469V18.5436V18.5402V18.5368V18.5335V18.5301V18.5267V18.5234V18.52V18.5166V18.5132V18.5099V18.5065V18.5031V18.4997V18.4963V18.4929V18.4896V18.4862V18.4828V18.4794V18.476V18.4726V18.4692V18.4658V18.4624V18.459V18.4556V18.4522V18.4488V18.4454V18.442V18.4386V18.4352V18.4317V18.4283V18.4249V18.4215V18.4181V18.4147V18.4112V18.4078V18.4044V18.401V18.3975V18.3941V18.3907V18.3872V18.3838V18.3804V18.3769V18.3735V18.3701V18.3666V18.3632V18.3597V18.3563V18.3528V18.3494V18.3459V18.3425V18.339V18.3356V18.3321V18.3286V18.3252V18.3217V18.3182V18.3148V18.3113V18.3078V18.3044V18.3009V18.2974V18.2939V18.2904V18.287V18.2835V18.28V18.2765V18.273V18.2695V18.266V18.2625V18.259V18.2555V18.252V18.2485V18.245V18.2415V18.238V18.2345V18.231V18.2275V18.224V18.2205V18.2169V18.2134V18.2099V18.2064V18.2028V18.1993V18.1958V18.1923V18.1887V18.1852V18.1816V18.1781V18.1746V18.171V18.1675V18.1639V18.1604V18.1568V18.1533V18.1497V18.1461V18.1426V18.139V18.1355V18.1319V18.1283V18.1248V18.1212V18.1176V18.114V18.1105V18.1069V18.1033V18.0997V18.0961V18.0925V18.0889V18.0853V18.0817V18.0781V18.0745V18.0709V18.0673V18.0637V18.0601V18.0565V18.0529V18.0493V18.0457V18.042V18.0384V18.0348V18.0312V18.0275V18.0239V18.0203V18.0166V18.013V18.0094V18.0057V18.0021V17.9984V17.9948V17.9911V17.9875V17.9838V17.9802V17.9765V17.9728V17.9692V17.9655V17.9618V17.9582V17.9545V17.9508V17.9471V17.9435V17.9398V17.9361V17.9324V17.9287V17.925V17.9213V17.9176V17.9139V17.9102V17.9065V17.9028V17.8991V17.8954V17.8917V17.8879V17.8842V17.8805V17.8768V17.873V17.8693V17.8656V17.8618V17.8581V17.8544V17.8506V17.8469V17.8431V17.8394V17.8356V17.8319V17.8281V17.8243V17.8206V17.8168V17.813V17.8093V17.8055V17.8017V17.7979V17.7942V17.7904V17.7866V17.7828V17.779V17.7752V17.7714V17.7676V17.7638V17.76V17.7562V17.7524V17.7486V17.7448V17.7409V17.7371V17.7333V17.7295V17.7256V17.7218V17.718V17.7141V17.7103V17.7065V17.7026V17.6988V17.6949V17.691V17.6872V17.6833V17.6795V17.6756V17.6717V17.6679V17.664V17.6601V17.6562V17.6523V17.6485V17.6446V17.6407V17.6368V17.6329V17.629V17.6251V17.6212V17.6173V17.6134V17.6094V17.6055V17.6016V17.5977V17.5938V17.5898V17.5859V17.582V17.578V17.5741V17.5701V17.5662V17.5622V17.5583V17.5543V17.5504V17.5464V17.5424V17.5385V17.5345V17.5305V17.5266V17.5226V17.5186V17.5146V17.5106V17.5066V17.5026V17.4986V17.4946V17.4906V17.4866V17.4826V17.4786V17.4746V17.4705V17.4665V17.4625V17.2064L33.2921 17.0567L29.8546 14.5817L29.8473 14.5765L29.8398 14.5715C29.7044 14.4812 29.6611 14.3998 29.6495 14.3575C29.6413 14.3273 29.6343 14.2686 29.7035 14.1649L29.712 14.1521L29.7197 14.1388L33.12 8.29035C33.2704 8.1629 33.4623 8.11424 33.6468 8.16808L37.608 9.94375L37.8972 10.0734L38.1379 9.86713C39.0542 9.08169 39.9656 8.56097 41.013 8.16816L41.3051 8.05864L41.3352 7.74816L41.7477 3.48566L41.75 3.46164V3.4375C41.75 3.41337 41.7581 3.37783 41.8148 3.33374C41.8769 3.28544 41.9737 3.25 42.075 3.25H48.8125C48.8492 3.25 48.8761 3.2547 48.8939 3.25973C48.8925 3.2654 48.8906 3.27194 48.8881 3.27939L48.8546 3.38005L48.8648 3.48566L49.2773 7.74816L49.304 8.0235L49.5514 8.14721C50.6356 8.68931 51.574 9.22626 52.5094 9.89437L52.7428 10.0611L53.0045 9.94375L56.992 8.15625L57.0301 8.13918L57.0648 8.11602C57.1686 8.04686 57.2273 8.05384 57.2575 8.06207C57.2986 8.07328 57.3766 8.11448 57.4638 8.24106L60.8651 14.0913C60.9078 14.2338 60.9138 14.3338 60.9018 14.3996C60.8925 14.4505 60.8701 14.5065 60.7726 14.5715L60.7651 14.5765L60.7578 14.5817L57.3203 17.0567L57.0591 17.2449L57.1222 17.5606C57.249 18.1948 57.25 18.7008 57.25 19.25C57.25 19.7992 57.249 20.3052 57.1222 20.9394ZM38 19.25C38 23.3761 41.2488 26.625 45.375 26.625C49.5011 26.625 52.75 23.3761 52.75 19.25C52.75 15.1239 49.5011 11.875 45.375 11.875C41.2488 11.875 38 15.1239 38 19.25Z" fill="#FF738D" stroke="black"/>
</svg>
