<svg width="20" height="20" viewBox="0 0 20 20" fill="none" xmlns="http://www.w3.org/2000/svg">
<path d="M10.3756 14.2606L10.3294 14.4455L10.4771 14.5659L11.6021 15.4826L11.6079 15.4873L10.4999 17.3751L9.24846 16.8099L9.08684 16.737L8.94498 16.8434C8.61115 17.0937 8.35405 17.2741 8.03011 17.3821L7.84344 17.4443L7.82614 17.6403L7.70323 19.0334H5.5884L5.46548 17.6403L5.44995 17.4643L5.28849 17.3925C4.91794 17.2279 4.61854 17.0756 4.36188 16.8556L4.21704 16.7314L4.04317 16.8099L2.79173 17.3751L1.68375 15.4874L2.84102 14.6608L2.99886 14.5481L2.96082 14.3579C2.92569 14.1822 2.92498 14.0431 2.92498 13.8334C2.92498 13.6134 2.92686 13.4461 2.95769 13.3228L3.00723 13.1246L2.84102 13.0059L1.68375 12.1793L2.79173 10.2916L4.04317 10.8568L4.20478 10.9298L4.34665 10.8234C4.68047 10.573 4.93758 10.3926 5.26151 10.2846L5.44299 10.2241L5.46471 10.0341L5.62955 8.59169H7.74489L7.86781 9.98472L7.88334 10.1607L8.0448 10.2325C8.41536 10.3972 8.71475 10.5495 8.97141 10.7695L9.12052 10.8973L9.29731 10.8117L10.5422 10.2094L11.6495 12.0959L10.4923 12.9226L10.3344 13.0353L10.3725 13.2255C10.4076 13.4012 10.4083 13.5403 10.4083 13.75C10.4083 13.97 10.4064 14.1373 10.3756 14.2606ZM4.28331 13.75C4.28331 15.0824 5.33429 16.1334 6.66665 16.1334C7.999 16.1334 9.04998 15.0824 9.04998 13.75C9.04998 12.4177 7.999 11.3667 6.66665 11.3667C5.33429 11.3667 4.28331 12.4177 4.28331 13.75Z" stroke="#070707" stroke-width="0.6"/>
<path d="M17.1642 6.31614L17.1241 6.51672L17.2961 6.62733L18.4232 7.35189L17.4364 9.04917C17.4358 9.04933 17.4352 9.04945 17.4347 9.04952C17.4344 9.04957 17.4341 9.0496 17.4339 9.04962L16.2477 8.51789L16.0742 8.44009L15.9298 8.56387C15.6658 8.79013 15.4048 8.93923 15.103 9.05241L14.9278 9.11813L14.9097 9.30442L14.7908 10.5333H12.8342L12.7153 9.30442L12.6993 9.13921L12.5509 9.06499C12.227 8.90306 11.9498 8.74422 11.6744 8.54753L11.5343 8.44749L11.3773 8.51789L10.1894 9.05042L9.20079 7.3501L10.217 6.61844L10.3737 6.50557L10.3359 6.31614C10.3006 6.13975 10.3 5.99951 10.3 5.83331V5.83234V5.83136V5.83038V5.82941V5.82843V5.82745V5.82648V5.8255V5.82452V5.82355V5.82257V5.82159V5.82062V5.81964V5.81866V5.81769V5.81671V5.81573V5.81476V5.81378V5.8128V5.81183V5.81085V5.80987V5.80889V5.80792V5.80694V5.80596V5.80499V5.80401V5.80303V5.80205V5.80107V5.8001V5.79912V5.79814V5.79716V5.79619V5.79521V5.79423V5.79325V5.79227V5.7913V5.79032V5.78934V5.78836V5.78738V5.7864V5.78542V5.78445V5.78347V5.78249V5.78151V5.78053V5.77955V5.77857V5.77759V5.77661V5.77563V5.77465V5.77367V5.77269V5.77171V5.77073V5.76975V5.76877V5.76779V5.76681V5.76583V5.76485V5.76387V5.76288V5.7619V5.76092V5.75994V5.75896V5.75798V5.75699V5.75601V5.75503V5.75405V5.75306V5.75208V5.7511V5.75011V5.74913V5.74815V5.74716V5.74618V5.7452V5.74421V5.74323V5.74224V5.74126V5.74027V5.73929V5.7383V5.73732V5.73633V5.73535V5.73436V5.73337V5.73239V5.7314V5.73041V5.72943V5.72844V5.72745V5.72647V5.72548V5.72449V5.7235V5.72251V5.72152V5.72054V5.71955V5.71856V5.71757V5.71658V5.71559V5.7146V5.71361V5.71262V5.71163V5.71064V5.70964V5.70865V5.70766V5.70667V5.70568V5.70469V5.70369V5.7027V5.70171V5.70071V5.69972V5.69873V5.69773V5.69674V5.69574V5.69475V5.69375V5.69276V5.69176V5.69076V5.68977V5.68877V5.68778V5.68678V5.68578V5.68478V5.68378V5.68279V5.68179V5.68079V5.67979V5.67879V5.67779V5.67679V5.67579V5.67479V5.67379V5.67279V5.67179V5.67079V5.66978V5.66878V5.66778V5.66678V5.66577V5.66477V5.66376V5.66276V5.66176V5.66075V5.65975V5.65874V5.65773V5.65673V5.65572V5.65471V5.65371V5.6527V5.65169V5.65068V5.64967V5.64867V5.64766V5.64665V5.64564V5.64463V5.64362V5.6426V5.64159V5.64058V5.63957V5.63856V5.63754V5.63653V5.63552V5.6345V5.63349V5.63247V5.63146V5.63044V5.62943V5.62841V5.62739V5.62638V5.62536V5.62434V5.62332V5.6223V5.62129V5.62027V5.61925V5.61823V5.61721V5.61618V5.61516V5.61414V5.61312V5.6121V5.61107V5.61005V5.60903V5.608V5.60698V5.60595V5.60493V5.6039V5.60287V5.60185V5.60082V5.59979V5.59876V5.59773V5.59671V5.59568V5.59465V5.59362V5.59259V5.59155V5.59052V5.58949V5.58846V5.58742V5.58639V5.58536V5.58432V5.58329V5.58225V5.58121V5.58018V5.57914V5.5781V5.57707V5.57603V5.57499V5.57395V5.57291V5.57187V5.57083V5.56979V5.56875V5.5677V5.56666V5.56562V5.56457V5.56353V5.56249V5.56144V5.56039V5.55935V5.5583V5.55725V5.55621V5.55516V5.55411V5.55306V5.55201V5.55096V5.54991V5.54886V5.54781V5.54675V5.5457V5.54465V5.54359V5.54254V5.54148V5.54043V5.53937V5.53831V5.53726V5.5362V5.53514V5.53408V5.53302V5.53196V5.5309V5.52984V5.52878V5.52772V5.52665V5.52559V5.52453V5.52346V5.5224V5.52133V5.52026V5.5192V5.51813V5.51706V5.51599V5.51492V5.51385V5.51278V5.51171V5.51064V5.50957V5.5085V5.50742V5.50635V5.50527V5.5042V5.50312V5.50205V5.50097V5.49989V5.49881V5.49773V5.49665V5.49557V5.49449V5.49341V5.49233V5.49125V5.49016V5.48908V5.488V5.48691V5.48582V5.48474V5.48365V5.48256V5.48147V5.48039V5.4793V5.47821V5.47711V5.47602V5.47493V5.47384V5.47274V5.47165V5.47056V5.46946V5.46836V5.46727V5.46617V5.46507V5.46397V5.46287V5.46177V5.46067V5.45957V5.45847V5.45736V5.45626V5.45516V5.45405V5.45294V5.45184V5.45073V5.44962V5.44851V5.44741V5.4463V5.44518V5.44407V5.44296V5.44185V5.44073V5.43962V5.43851V5.43739V5.43627V5.43516V5.43404V5.43292V5.4318V5.43068V5.42956V5.42844V5.42732V5.42619V5.42507V5.42394V5.42282V5.42169V5.42057V5.41944V5.41831V5.41718V5.41605V5.41492V5.41379V5.41266V5.41153V5.41039V5.40926V5.40812V5.40699V5.40585V5.40471V5.40358V5.40244V5.4013V5.40016V5.39902V5.39787V5.39673V5.39559V5.39444V5.3933V5.39215V5.391V5.38986V5.38871V5.38756V5.38641V5.38526V5.38411V5.38295V5.3818V5.38065V5.37949V5.37834V5.37718V5.37602V5.37487V5.37371V5.37255V5.37139V5.37022V5.36906V5.3679V5.36674V5.36557V5.36441V5.36324V5.36207V5.3609V5.35973V5.35856V5.35739V5.35622V5.35505V5.35388V5.3527V5.35153V5.35035V5.34918V5.348V5.34682V5.34564V5.34446V5.34328V5.3421V5.34091V5.33973V5.33855V5.33736V5.33617V5.33499V5.3338V5.33261V5.33142V5.33023V5.32904V5.32785V5.32665V5.32546V5.32426V5.32307V5.32187V5.32067V5.31947V5.31827V5.31707V5.31587V5.31467V5.31347V5.31226V5.31106V5.30985V5.30864V5.30744V5.30623V5.30502V5.30381V5.30259V5.30138V5.30017V5.29895V5.29774V5.29652V5.2953V5.29409V5.29287V5.29165V5.13798L10.1753 5.04819L9.15912 4.31653L10.147 2.61746C10.148 2.61719 10.1488 2.61706 10.1495 2.61701L11.3356 3.14873L11.5092 3.22653L11.6536 3.10276C11.9176 2.87649 12.1785 2.7274 12.4804 2.61421L12.6556 2.5485L12.6736 2.36221L12.7926 1.13331H14.6658L14.7847 2.36221L14.8007 2.52741L14.9492 2.60164C15.273 2.76356 15.5503 2.92241 15.8256 3.1191L15.9657 3.21913L16.1227 3.14873L17.3107 2.6162L18.2993 4.31653L17.2831 5.04819L17.1263 5.16106L17.1642 5.35048C17.1995 5.52688 17.2 5.66711 17.2 5.83331C17.2 5.99951 17.1995 6.13975 17.1642 6.31614ZM18.4686 7.38236C18.4686 7.38236 18.4684 7.38217 18.468 7.38175C18.4684 7.38214 18.4686 7.38235 18.4686 7.38236ZM14.8334 10.5333H14.8321C14.8327 10.5333 14.833 10.5333 14.8332 10.5333C14.8333 10.5333 14.8333 10.5333 14.8334 10.5333ZM12.7918 10.5333C12.792 10.5333 12.7924 10.5333 12.7929 10.5333H12.7917C12.7917 10.5333 12.7918 10.5333 12.7918 10.5333ZM10.2157 9.09356C10.2157 9.09357 10.2155 9.0934 10.2151 9.09299C10.2155 9.09334 10.2157 9.09354 10.2157 9.09356ZM9.11477 4.28427C9.11479 4.28427 9.11499 4.28446 9.11534 4.28486C9.11494 4.28448 9.11476 4.28427 9.11477 4.28427ZM12.75 1.13331H12.7512C12.7507 1.13337 12.7503 1.13334 12.7502 1.13332C12.7501 1.13332 12.7501 1.13331 12.75 1.13331ZM17.2843 2.57307C17.2843 2.57305 17.2845 2.57323 17.2849 2.57364C17.2845 2.57328 17.2843 2.57308 17.2843 2.57307ZM11.3667 5.83331C11.3667 7.16567 12.4177 8.21665 13.75 8.21665C15.0824 8.21665 16.1334 7.16567 16.1334 5.83331C16.1334 4.50096 15.0824 3.44998 13.75 3.44998C12.4177 3.44998 11.3667 4.50096 11.3667 5.83331Z" stroke="#070707" stroke-width="0.6"/>
</svg>
