<svg width="66" height="66" viewBox="0 0 66 66" fill="none" xmlns="http://www.w3.org/2000/svg">
<path d="M32.6494 10.9825L33.0029 11.3302L33.3536 10.9796L35.3616 8.9715C38.6988 5.8182 43.1334 4.08931 47.7244 4.15193C52.3178 4.21458 56.7057 6.06562 59.9561 9.31183C63.2065 12.558 65.0632 16.9436 65.1317 21.5369C65.2003 26.1278 63.4771 30.5646 60.3282 33.9058L32.9998 61.2667L5.67176 33.9386C2.52288 30.5975 0.799777 26.1607 0.868301 21.5699C0.936862 16.9766 2.79355 12.591 6.04393 9.34483C9.29431 6.09862 13.6823 4.24758 18.2756 4.18493C22.8673 4.1223 27.3026 5.85172 30.6399 9.00594L32.6494 10.9825Z" fill="#B8002B" stroke="black"/>
<path d="M37.0007 26.9991V18.9972H32.9998H28.9987V26.9991H20.9973V35.0008H28.9987V43.0024H32.9998H37.0007V35.0008H45.0024V26.9991H37.0007Z" fill="white"/>
</svg>
