<svg width="110" height="31" viewBox="0 0 110 31" fill="none" xmlns="http://www.w3.org/2000/svg">
<rect width="52" height="31" fill="url(#paint0_linear_1086_1992)"/>
<path d="M41.004 25H38.484V15.676H28.236V25H25.716V5.008H28.236V13.464H38.484V5.008H41.004V25ZM48.5979 9.992V25H46.1339V9.992H48.5979ZM47.3939 4.364C47.7672 4.364 48.0939 4.49467 48.3739 4.756C48.6726 4.99867 48.8219 5.39067 48.8219 5.932C48.8219 6.45467 48.6726 6.84667 48.3739 7.108C48.0939 7.36933 47.7672 7.5 47.3939 7.5C46.9832 7.5 46.6379 7.36933 46.3579 7.108C46.0779 6.84667 45.9379 6.45467 45.9379 5.932C45.9379 5.39067 46.0779 4.99867 46.3579 4.756C46.6379 4.49467 46.9832 4.364 47.3939 4.364Z" fill="white"/>
<path d="M60.2687 11.896H56.4887V25H54.0247V11.896H51.3927V10.748L54.0247 9.908V9.04C54.0247 7.752 54.2113 6.70667 54.5847 5.904C54.9767 5.10133 55.5367 4.51333 56.2647 4.14C56.9927 3.76667 57.87 3.58 58.8967 3.58C59.494 3.58 60.0353 3.636 60.5207 3.748C61.0247 3.84133 61.454 3.95333 61.8087 4.084L61.1647 6.016C60.866 5.92267 60.5207 5.82933 60.1287 5.736C59.7367 5.64267 59.3353 5.596 58.9247 5.596C58.1033 5.596 57.4873 5.876 57.0767 6.436C56.6847 6.97733 56.4887 7.836 56.4887 9.012V9.992H60.2687V11.896ZM65.4487 9.992V25H62.9847V9.992H65.4487ZM64.2447 4.364C64.618 4.364 64.9447 4.49467 65.2247 4.756C65.5233 4.99867 65.6727 5.39067 65.6727 5.932C65.6727 6.45467 65.5233 6.84667 65.2247 7.108C64.9447 7.36933 64.618 7.5 64.2447 7.5C63.834 7.5 63.4887 7.36933 63.2087 7.108C62.9287 6.84667 62.7887 6.45467 62.7887 5.932C62.7887 5.39067 62.9287 4.99867 63.2087 4.756C63.4887 4.49467 63.834 4.364 64.2447 4.364ZM77.4204 9.712C79.2124 9.712 80.5657 10.1507 81.4804 11.028C82.3951 11.8867 82.8524 13.2867 82.8524 15.228V25H80.4164V15.396C80.4164 14.1827 80.1457 13.2773 79.6044 12.68C79.0631 12.0827 78.2137 11.784 77.0564 11.784C75.3951 11.784 74.2471 12.2507 73.6124 13.184C72.9777 14.1173 72.6604 15.4613 72.6604 17.216V25H70.1964V9.992H72.1844L72.5484 12.036H72.6884C73.0244 11.5133 73.4351 11.084 73.9204 10.748C74.4244 10.3933 74.9751 10.132 75.5724 9.964C76.1697 9.796 76.7857 9.712 77.4204 9.712ZM92.825 25.28C90.9583 25.28 89.465 24.636 88.345 23.348C87.225 22.0413 86.665 20.1 86.665 17.524C86.665 14.948 87.225 13.0067 88.345 11.7C89.4837 10.3747 90.9863 9.712 92.853 9.712C93.637 9.712 94.3183 9.81467 94.897 10.02C95.4757 10.2067 95.9797 10.468 96.409 10.804C96.8383 11.14 97.2023 11.5133 97.501 11.924H97.669C97.6503 11.6813 97.613 11.3267 97.557 10.86C97.5197 10.3747 97.501 9.992 97.501 9.712V3.72H99.965V25H97.977L97.613 22.984H97.501C97.2023 23.4133 96.8383 23.8053 96.409 24.16C95.9797 24.496 95.4663 24.7667 94.869 24.972C94.2903 25.1773 93.609 25.28 92.825 25.28ZM93.217 23.236C94.8037 23.236 95.9143 22.8067 96.549 21.948C97.2023 21.0707 97.529 19.7547 97.529 18V17.552C97.529 15.6853 97.221 14.2573 96.605 13.268C95.989 12.26 94.8503 11.756 93.189 11.756C91.8637 11.756 90.865 12.288 90.193 13.352C89.5397 14.3973 89.213 15.8067 89.213 17.58C89.213 19.372 89.5397 20.7627 90.193 21.752C90.865 22.7413 91.873 23.236 93.217 23.236ZM104.368 23.488C104.368 22.7973 104.536 22.312 104.872 22.032C105.208 21.752 105.609 21.612 106.076 21.612C106.561 21.612 106.972 21.752 107.308 22.032C107.662 22.312 107.84 22.7973 107.84 23.488C107.84 24.16 107.662 24.6453 107.308 24.944C106.972 25.2427 106.561 25.392 106.076 25.392C105.609 25.392 105.208 25.2427 104.872 24.944C104.536 24.6453 104.368 24.16 104.368 23.488Z" fill="#070707"/>
<defs>
<linearGradient id="paint0_linear_1086_1992" x1="4.33333" y1="24.2833" x2="25.2289" y2="70.7928" gradientUnits="userSpaceOnUse">
<stop stop-color="#EC008B"/>
<stop offset="1" stop-color="#2B3986" stop-opacity="0"/>
</linearGradient>
</defs>
</svg>
