<svg width="66" height="66" viewBox="0 0 66 66" fill="none" xmlns="http://www.w3.org/2000/svg">
<path d="M51.2003 65.0332H14.7995C11.4766 65.0332 8.85423 62.2139 9.09967 58.9055L12.5734 12.0977C12.5981 11.7662 12.8742 11.5098 13.2066 11.5098H52.7931C53.1255 11.5098 53.4016 11.7662 53.4263 12.0977L56.9 58.9055C57.1456 62.2139 54.5233 65.0332 51.2003 65.0332Z" fill="#FFC4BF"/>
<path d="M56.9002 58.9055L53.4263 12.0977C53.4017 11.7662 53.1256 11.5098 52.7931 11.5098H50.2905C50.623 11.5098 50.8991 11.7662 50.9237 12.0977L54.3975 58.9055C54.643 62.2139 52.0206 65.0332 48.6976 65.0332H51.2002C54.5233 65.0332 57.1456 62.2139 56.9002 58.9055Z" fill="#FFAAA1"/>
<path d="M24.4385 22.8464C25.5353 22.8464 26.4245 21.9587 26.4245 20.8636C26.4245 19.7685 25.5353 18.8808 24.4385 18.8808C23.3416 18.8808 22.4524 19.7685 22.4524 20.8636C22.4524 21.9587 23.3416 22.8464 24.4385 22.8464Z" fill="#FD7A6E"/>
<path d="M41.5613 22.8464C42.6581 22.8464 43.5473 21.9587 43.5473 20.8636C43.5473 19.7685 42.6581 18.8808 41.5613 18.8808C40.4644 18.8808 39.5752 19.7685 39.5752 20.8636C39.5752 21.9587 40.4644 22.8464 41.5613 22.8464Z" fill="#FD7A6E"/>
<path d="M41.5613 18.8808C41.3424 18.8808 41.1325 18.9175 40.9355 18.9827C41.7256 19.2445 42.296 19.987 42.296 20.8636C42.296 21.7402 41.7256 22.4827 40.9355 22.7445C41.1324 22.8097 41.3424 22.8464 41.5613 22.8464C42.6581 22.8464 43.5473 21.9587 43.5473 20.8636C43.5474 19.7685 42.6583 18.8808 41.5613 18.8808Z" fill="#FB695B"/>
<path d="M24.4386 18.8808C24.2197 18.8808 24.0098 18.9175 23.8129 18.9827C24.6029 19.2445 25.1733 19.987 25.1733 20.8636C25.1733 21.7402 24.6029 22.4827 23.8129 22.7445C24.0097 22.8097 24.2197 22.8464 24.4386 22.8464C25.5354 22.8464 26.4246 21.9587 26.4246 20.8636C26.4246 19.7685 25.5354 18.8808 24.4386 18.8808Z" fill="#FB695B"/>
<path d="M9.09968 58.9055C8.85412 62.2139 11.4766 65.0332 14.7995 65.0332H51.2003C54.5233 65.0332 57.1456 62.2139 56.9002 58.9055L56.5423 54.0838H9.45753L9.09968 58.9055Z" fill="#FD7A6E"/>
<path d="M56.9002 58.9055L56.5423 54.0838H54.0398L54.3976 58.9055C54.6432 62.2139 52.0207 65.0332 48.6978 65.0332H51.2003C54.5233 65.0332 57.1456 62.2139 56.9002 58.9055Z" fill="#FB695B"/>
<path d="M51.4743 66H14.5242C12.6467 66 10.8375 65.2115 9.56095 63.8366C8.28697 62.4645 7.63573 60.6075 7.77418 58.7414L11.3005 11.2273C11.3625 10.3907 12.0684 9.73526 12.9075 9.73526H53.0913C53.9305 9.73526 54.6362 10.3907 54.6982 11.2275L58.2243 58.7414C58.3628 60.6075 57.7116 62.4645 56.4377 63.8366C55.1609 65.2115 53.3518 66 51.4743 66ZM13.2067 11.6689L9.70261 58.8845C9.60233 60.2357 10.0553 61.5271 10.978 62.5208C11.9034 63.5175 13.1628 64.0664 14.5244 64.0664H51.4744C52.8359 64.0664 54.0952 63.5175 55.0208 62.5209C55.9435 61.5272 56.3965 60.2357 56.2962 58.8846L52.792 11.6689H13.2067Z" fill="black"/>
<path d="M41.5541 19.1561C41.02 19.1561 40.5873 18.7232 40.5873 18.1893V9.57606C40.5873 5.36198 37.1531 1.93359 32.932 1.93359C28.7102 1.93359 25.2755 5.36198 25.2755 9.57606V18.184C25.2755 18.718 24.8426 19.1508 24.3087 19.1508C23.7748 19.1508 23.3419 18.718 23.3419 18.184V9.57606C23.3419 4.2958 27.644 0 32.932 0C38.2194 0 42.5209 4.2958 42.5209 9.57606V18.1893C42.5209 18.7234 42.088 19.1561 41.5541 19.1561Z" fill="black"/>
<path d="M24.3087 23.1766C22.664 23.1766 21.3258 21.8399 21.3258 20.197C21.3258 18.5541 22.664 17.2175 24.3087 17.2175C25.9534 17.2175 27.2916 18.5541 27.2916 20.197C27.2916 21.8399 25.9534 23.1766 24.3087 23.1766ZM24.3087 19.1511C23.7302 19.1511 23.2594 19.6203 23.2594 20.197C23.2594 20.7738 23.7302 21.243 24.3087 21.243C24.8872 21.243 25.358 20.7738 25.358 20.197C25.358 19.6203 24.8872 19.1511 24.3087 19.1511Z" fill="black"/>
<path d="M41.6899 23.1766C40.0452 23.1766 38.707 21.8399 38.707 20.197C38.707 18.5541 40.0452 17.2175 41.6899 17.2175C43.3346 17.2175 44.6728 18.5541 44.6728 20.197C44.6728 21.8399 43.3345 23.1766 41.6899 23.1766ZM41.6899 19.1511C41.1114 19.1511 40.6406 19.6203 40.6406 20.197C40.6406 20.7738 41.1113 21.243 41.6899 21.243C42.2686 21.243 42.7392 20.7738 42.7392 20.197C42.7392 19.6203 42.2685 19.1511 41.6899 19.1511Z" fill="black"/>
<path d="M51.4743 66H14.5242C12.6467 66 10.8377 65.2115 9.5611 63.8366C8.28712 62.4645 7.63575 60.6075 7.77433 58.7414L8.13759 53.847C8.1751 53.3422 8.59559 52.9517 9.10168 52.9517H56.8969C57.4031 52.9517 57.8235 53.3422 57.861 53.847L58.2241 58.7414C58.3626 60.6075 57.7113 62.4645 56.4375 63.8366C55.1609 65.2115 53.3518 66 51.4743 66ZM9.70264 58.8845C9.60235 60.2357 10.0553 61.5271 10.9782 62.5208C11.9036 63.5174 13.163 64.0663 14.5244 64.0663H51.4744C52.836 64.0663 54.0952 63.5174 55.0208 62.5208C55.9435 61.5271 56.3965 60.2356 56.2962 58.8845L55.9994 54.8853H9.99938L9.70264 58.8845Z" fill="black"/>
</svg>
