<svg width="20" height="20" viewBox="0 0 20 20" fill="none" xmlns="http://www.w3.org/2000/svg">
<path d="M15.5982 20H4.40124C3.83229 20 3.28405 19.7611 2.89722 19.3444C2.51116 18.9286 2.31382 18.3659 2.35577 17.8004L3.42436 3.40222C3.44315 3.14871 3.65706 2.95007 3.91132 2.95007H16.0882C16.3425 2.95007 16.5564 3.14871 16.5752 3.40226L17.6437 17.8004C17.6857 18.3659 17.4883 18.9286 17.1023 19.3444C16.7154 19.7611 16.1672 20 15.5982 20ZM3.99994 3.99988L2.94015 17.8438C2.90976 18.2532 3.04702 18.6446 3.32663 18.9457C3.60706 19.2477 3.9887 19.4141 4.40128 19.4141H15.5983C16.0108 19.4141 16.3925 19.2477 16.6729 18.9457C16.9525 18.6446 17.0898 18.2532 17.0594 17.8438L15.9999 3.99988H3.99994Z" fill="#070707"/>
<path d="M12.5921 5.80488C12.4302 5.80488 12.2991 5.67371 12.2991 5.51191V2.90184C12.2991 1.62484 11.2584 0.585938 9.97934 0.585938C8.7 0.585938 7.65918 1.62484 7.65918 2.90184V5.51031C7.65918 5.67211 7.52801 5.80328 7.36621 5.80328C7.20441 5.80328 7.07324 5.67211 7.07324 5.51031V2.90184C7.07324 1.30176 8.37691 0 9.97934 0C11.5816 0 12.885 1.30176 12.885 2.90184V5.51191C12.885 5.67375 12.7539 5.80488 12.5921 5.80488Z" fill="#070707"/>
<path d="M7.36619 7.02319C6.86779 7.02319 6.46228 6.61815 6.46228 6.1203C6.46228 5.62245 6.86779 5.21741 7.36619 5.21741C7.86458 5.21741 8.27009 5.62245 8.27009 6.1203C8.27009 6.61815 7.86458 7.02319 7.36619 7.02319ZM7.36619 5.80334C7.19087 5.80334 7.04822 5.94553 7.04822 6.1203C7.04822 6.29506 7.19087 6.43725 7.36619 6.43725C7.5415 6.43725 7.68416 6.29506 7.68416 6.1203C7.68416 5.94553 7.5415 5.80334 7.36619 5.80334Z" fill="#070707"/>
<path d="M12.6333 7.02319C12.1349 7.02319 11.7294 6.61815 11.7294 6.1203C11.7294 5.62245 12.1349 5.21741 12.6333 5.21741C13.1317 5.21741 13.5372 5.62245 13.5372 6.1203C13.5372 6.61815 13.1316 7.02319 12.6333 7.02319ZM12.6333 5.80334C12.458 5.80334 12.3153 5.94553 12.3153 6.1203C12.3153 6.29506 12.4579 6.43725 12.6333 6.43725C12.8086 6.43725 12.9512 6.29506 12.9512 6.1203C12.9512 5.94553 12.8086 5.80334 12.6333 5.80334Z" fill="#070707"/>
<path d="M15.5982 20H4.40121C3.83226 20 3.28406 19.761 2.89722 19.3444C2.51117 18.9286 2.31379 18.3659 2.35578 17.8004L2.46586 16.3172C2.47722 16.1643 2.60465 16.046 2.75801 16.046H17.2414C17.3948 16.046 17.5222 16.1643 17.5336 16.3172L17.6436 17.8004C17.6855 18.3659 17.4882 18.9286 17.1022 19.3444C16.7153 19.761 16.1671 20 15.5982 20ZM2.94012 17.8438C2.90972 18.2532 3.04699 18.6446 3.32664 18.9457C3.60707 19.2477 3.98871 19.414 4.40125 19.414H15.5982C16.0108 19.414 16.3924 19.2477 16.6729 18.9457C16.9525 18.6446 17.0898 18.2532 17.0594 17.8438L16.9999 17.0001H2.99988L2.94012 17.8438Z" fill="#070707"/>
</svg>
